<svg width="150" height="30" viewBox="0 0 150 30" fill="none" xmlns="http://www.w3.org/2000/svg">
<g clip-path="url(#clip0_215_2983)">
<path d="M50.0832 11.6532C47.8114 11.048 47.1348 10.8543 47.1348 10.0312C47.1348 9.1839 47.9323 8.67551 49.2615 8.67551C50.5907 8.67551 51.5816 9.06285 52.3549 9.83753L52.4275 9.91016L54.2642 7.70717L54.2159 7.65875C53.0075 6.44832 51.4366 5.86731 49.2857 5.86731C46.7481 5.86731 44.0896 7.48929 44.0896 10.1765C44.0896 12.6942 46.3131 13.5415 48.8023 14.2435C51.0499 14.8729 51.5816 15.1392 51.5816 16.0834C51.5816 17.1243 50.8082 17.6327 49.1165 17.6327C47.4973 17.6327 45.9747 16.7128 45.2255 15.8413L45.153 15.7686L43.2679 17.9232L43.3163 17.9716C44.2105 19.1821 46.7481 20.4651 49.334 20.4651C52.5 20.4651 54.5542 18.7221 54.5542 15.9865C54.53 13.3236 52.9108 12.3794 50.0832 11.6532Z" fill="white"/>
<path d="M63.4721 15.3328C63.4721 16.9548 62.7712 17.7537 61.3453 17.7537C60.0886 17.7537 59.6294 17.1969 59.6294 15.7202V9.6438H56.7535V16.3254C56.7535 18.8915 58.2519 20.4166 60.7411 20.4166C61.9737 20.4166 62.8679 20.0293 63.4721 19.2546V20.223H66.348V9.6438H63.4721V15.3328Z" fill="white"/>
<path d="M75.3625 9.4259C73.8158 9.4259 72.7282 9.93428 72.0515 10.9995V9.64378H69.1756V24.4353H72.0515V18.8673C72.7282 19.9325 73.8158 20.4408 75.3625 20.4408C78.2868 20.4408 80.2443 18.2379 80.2443 14.9455C80.2443 11.6531 78.2868 9.4259 75.3625 9.4259ZM77.3926 14.9213C77.3926 16.6401 76.3534 17.7537 74.7583 17.7537C73.1391 17.7537 72.0515 16.6159 72.0515 14.9213C72.0515 13.2267 73.1391 12.0889 74.7583 12.0889C76.3534 12.1131 77.3926 13.2267 77.3926 14.9213Z" fill="white"/>
<path d="M87.4705 9.4259C84.232 9.4259 81.8878 11.7257 81.8878 14.9213C81.8878 18.2136 84.1353 20.4166 87.4705 20.4166C89.4764 20.4166 91.3373 19.6177 92.304 18.3347L92.3523 18.2863L90.4672 16.5675L90.4189 16.6159C89.5247 17.56 88.848 17.8263 87.543 17.8263C86.0687 17.8263 85.1262 17.1243 84.8604 15.7928H92.6423V14.8971C92.6423 11.7015 90.5156 9.4259 87.4705 9.4259ZM84.9087 13.7108C85.247 12.5972 86.1412 12.0162 87.4705 12.0162C88.7272 12.0162 89.4039 12.5488 89.6697 13.7108H84.9087Z" fill="white"/>
<path d="M97.4517 11.1205V9.6438H94.5757V20.223H97.4517V14.9213C97.4517 13.1298 98.3217 12.5004 100.763 12.5004H101.246V9.6438H101.173C99.3851 9.6438 98.1767 10.128 97.4517 11.1205Z" fill="white"/>
<path d="M114.973 9.4259C113.402 9.4259 112.291 10.0069 111.686 11.1447C111.155 9.95849 110.067 9.4259 108.279 9.4259C107.022 9.4259 106.079 9.86166 105.451 10.7332V9.61957H102.575V20.1988H105.451V14.5339C105.451 12.8877 106.152 12.0162 107.481 12.0162C108.955 12.0162 109.27 12.8393 109.27 14.1466V20.2472H112.121V14.5339C112.121 12.8151 112.774 12.0162 114.2 12.0162C115.65 12.0162 115.916 12.7667 115.916 14.1466V20.2472H118.792V13.735C118.767 10.7574 117.583 9.4259 114.973 9.4259Z" fill="white"/>
<path d="M126.066 9.4259C122.876 9.4259 120.387 11.8468 120.387 14.9213C120.387 17.9958 122.876 20.4166 126.066 20.4166C129.256 20.4166 131.745 17.9958 131.745 14.9213C131.745 11.8468 129.256 9.4259 126.066 9.4259ZM128.894 14.9213C128.894 16.6401 127.782 17.7537 126.066 17.7537C124.35 17.7537 123.238 16.6401 123.238 14.9213C123.238 13.2025 124.35 12.0889 126.066 12.0889C127.782 12.1131 128.894 13.2267 128.894 14.9213Z" fill="white"/>
<path d="M133.703 20.9492C133.703 21.6271 133.389 21.7723 132.833 21.7723C132.229 21.7723 131.89 21.6271 131.528 21.2397L131.455 21.1671L130.175 23.3459L130.199 23.3943C130.73 24.0722 131.745 24.4595 132.954 24.4595C134.597 24.4595 136.579 23.9269 136.579 21.3608V9.6438H133.703V20.9492Z" fill="white"/>
<path d="M135.129 4.82629C134.162 4.82629 133.389 5.60097 133.389 6.56932C133.389 7.53766 134.162 8.31234 135.129 8.31234C136.096 8.31234 136.869 7.53766 136.869 6.56932C136.869 5.60097 136.071 4.82629 135.129 4.82629Z" fill="white"/>
<path d="M144.192 9.4259C141.002 9.4259 138.512 11.8468 138.512 14.9213C138.512 17.9958 141.002 20.4166 144.192 20.4166C147.382 20.4166 149.871 17.9958 149.871 14.9213C149.871 11.8468 147.382 9.4259 144.192 9.4259ZM146.995 14.9213C146.995 16.6401 145.883 17.7537 144.168 17.7537C142.452 17.7537 141.34 16.6401 141.34 14.9213C141.34 13.2025 142.452 12.0889 144.168 12.0889C145.883 12.0889 146.995 13.2267 146.995 14.9213Z" fill="white"/>
<path d="M33.456 15.0424L37.4437 0.202515H20.2122C13.5661 0.202515 8.15259 5.60105 8.15259 12.2826L14.267 12.1132C15.1612 12.089 15.9345 11.5564 16.2971 10.7333L18.6896 5.04425L20.8889 10.2733C21.3722 11.4111 22.3631 12.2826 23.5473 12.5973L33.456 15.0424Z" fill="#FF7D14"/>
<path d="M4.11655 14.2194L0.128906 29.0593H17.3604C24.0065 29.0593 29.42 23.6607 29.42 16.9791L23.3056 17.1486C22.4114 17.1728 21.638 17.7054 21.2755 18.5285L18.8829 24.2175L16.6837 18.9885C16.2003 17.8507 15.2095 16.9791 14.0253 16.6644L4.11655 14.2194Z" fill="#FF7D14"/>
</g>
<defs>
<clipPath id="clip0_215_2983">
<rect width="150" height="29.2969" fill="white"/>
</clipPath>
</defs>
</svg>
