<svg xmlns="http://www.w3.org/2000/svg" viewBox="71.68898010253906 177.24609155273438 431.6300048828125 220.50781249999997"> <svg xmlns="http://www.w3.org/2000/svg" xmlns:xlink="http://www.w3.org/1999/xlink" version="1.1" id="Layer_1" x="318.31898498535156" y="247.24609155273438" viewBox="35.09600067138672 99.5419921875 429.8079833984375 300.9156188964844" enable-background="new 0 0 500 500" xml:space="preserve" height="80.5078125" width="115" preserveAspectRatio="xMinYMin" style="overflow: visible;"><radialGradient id="SVGID_1_" cx="454.8673" cy="176.7143" r="458.5565" gradientUnits="userSpaceOnUse" style=""><stop offset="0" style="stop-color: #FFFFFF;"></stop><stop offset="1" style="stop-color: #000000;"></stop></radialGradient><path fill="url(#SVGID_1_)" d="M35.096,241.278l121.598-0.921l25.109-25.108l63.524-63.521c4.86-4.86,12.738-4.86,17.598,0   l50.948,50.948L213.174,235.99l134.697,0.683l11.545,0.058l35.921-0.64l2.849-0.053L267.041,104.893   c-7.134-7.134-18.7-7.135-25.833-0.001L134.311,211.788C133.564,212.535,35.689,240.442,35.096,241.278z" style="fill: url(#SVGID_1_);"></path><radialGradient id="SVGID_00000129173117503277164330000006192167785676479900_" cx="454.8673" cy="176.7143" r="458.5565" gradientUnits="userSpaceOnUse" style=""><stop offset="0" style="stop-color: #FFFFFF;"></stop><stop offset="1" style="stop-color: #000000;"></stop></radialGradient><path fill="url(#SVGID_00000129173117503277164330000006192167785676479900_)" d="M464.904,258.723l-121.599,0.92l-25.109,25.109   l-63.521,63.521c-4.861,4.861-12.738,4.86-17.599-0.001l-50.949-50.947l100.699-33.314l-134.696-0.685l-11.547-0.058l-35.92,0.641   l-2.851,0.051l131.147,131.147c7.135,7.135,18.7,7.133,25.832,0.001l106.897-106.897   C366.437,287.463,464.312,259.559,464.904,258.723z" style="fill: url(#SVGID_00000129173117503277164330000006192167785676479900_);"></path><linearGradient id="SVGID_00000067217955713707663370000016080802979403351431_" gradientUnits="userSpaceOnUse" x1="225.873" y1="238.1016" x2="397.2096" y2="109.7784" style=""><stop offset="0" style="stop-color: #FFFFFF;"></stop><stop offset="1" style="stop-color: #000000;"></stop></linearGradient><path fill="url(#SVGID_00000067217955713707663370000016080802979403351431_)" d="M254.125,144.692    c4.229,0,8.205,1.647,11.196,4.638l54.837,54.837l-86.261,28.538l125.458,0.637l30.79-0.549L264.644,107.29    c-2.811-2.81-6.547-4.358-10.521-4.358c-3.973,0-7.709,1.547-10.518,4.357l-79.422,79.422c4.346,7.528,9.99,15.583,17.286,24.077    l61.46-61.458C245.92,146.339,249.896,144.692,254.125,144.692z" style="fill: url(#SVGID_00000067217955713707663370000016080802979403351431_);"></path><linearGradient id="SVGID_00000131369807814060993630000000677633097260321172_" gradientUnits="userSpaceOnUse" x1="481.7293" y1="-33.0492" x2="-116.1563" y2="398.1597" style=""><stop offset="0" style="stop-color: #FFFFFF;"></stop><stop offset="1" style="stop-color: #000000;"></stop></linearGradient><path fill="url(#SVGID_00000131369807814060993630000000677633097260321172_)" d="M136.709,214.185    c-0.95,0.95-0.968,0.968-46.99,14.368c-10.293,2.997-21.727,6.326-31.357,9.157l96.917-0.734l26.19-26.188    c-7.296-8.494-12.94-16.549-17.286-24.077L136.709,214.185z" style="fill: url(#SVGID_00000131369807814060993630000000677633097260321172_);"></path><linearGradient id="SVGID_00000017503400367395790010000001011019627479156109_" gradientUnits="userSpaceOnUse" x1="551.8361" y1="64.1562" x2="-46.0496" y2="495.3651" style=""><stop offset="0" style="stop-color: #FFFFFF;"></stop><stop offset="1" style="stop-color: #000000;"></stop></linearGradient><path fill="url(#SVGID_00000017503400367395790010000001011019627479156109_)" d="M307.849,299.893l-50.777,50.777    c-2.991,2.991-6.967,4.638-11.196,4.638c-4.229,0-8.206-1.648-11.197-4.64l-54.838-54.835l75.355-24.93    c-1.99-1.235-3.952-2.466-5.868-3.694l-108.684-0.553l-30.79,0.55L235.357,392.71c2.81,2.81,6.547,4.358,10.52,4.358    s7.709-1.547,10.519-4.357l79.612-79.613C326.113,308.675,316.731,304.271,307.849,299.893z" style="fill: url(#SVGID_00000017503400367395790010000001011019627479156109_);"></path><linearGradient id="SVGID_00000115493597225653022090000009982734923940888746_" gradientUnits="userSpaceOnUse" x1="297.7772" y1="334.1076" x2="469.1137" y2="205.7844" style=""><stop offset="0" style="stop-color: #FFFFFF;"></stop><stop offset="1" style="stop-color: #000000;"></stop></linearGradient><path fill="url(#SVGID_00000115493597225653022090000009982734923940888746_)" d="M363.291,285.814    c0.949-0.95,0.968-0.968,46.996-14.37c10.29-2.996,21.722-6.325,31.35-9.154l-96.918,0.733l-36.871,36.871    c8.882,4.378,18.264,8.782,28.158,13.205L363.291,285.814z" style="fill: url(#SVGID_00000115493597225653022090000009982734923940888746_);"></path><radialGradient id="SVGID_00000119800166218011534990000001851617277217899400_" cx="3.733" cy="-190.9792" r="717.877" gradientTransform="matrix(1 0 0 1 -30.6086 351.7776)" gradientUnits="userSpaceOnUse" style=""><stop offset="0" style="stop-color: #FFFFFF;"></stop><stop offset="1" style="stop-color: #000000;"></stop></radialGradient><path fill="url(#SVGID_00000119800166218011534990000001851617277217899400_)" d="M266.103,267.296l-16.775-0.085    c1.917,1.227,3.878,2.459,5.868,3.694L266.103,267.296z" style="fill: url(#SVGID_00000119800166218011534990000001851617277217899400_);"></path></svg> <svg y="274.9400915527344" viewBox="2.1600000858306885 11.199999809265137 171.42999267578125 21.55999755859375" x="141.68898010253906" height="21.55999755859375" width="171.42999267578125" xmlns="http://www.w3.org/2000/svg" right="251.5" style="overflow: visible;"><g fill="#898989" fill-opacity="1" style=""><path d="M18.86 32.40L6.91 32.40Q4.46 32.40 3.31 32.18Q2.16 31.97 2.16 31.68L2.16 31.68L3.60 28.55Q4.43 28.69 7.72 28.82Q11.02 28.94 16.78 28.94L16.78 28.94L17.46 28.94Q19.01 28.94 19.66 28.39Q20.30 27.83 20.30 26.50L20.30 26.50L20.30 25.78Q20.30 24.52 19.78 23.98Q19.26 23.44 17.46 23.44L17.46 23.44L9.11 23.44Q5.47 23.44 3.82 22.09Q2.16 20.74 2.16 17.68L2.16 17.68L2.16 17.10Q2.16 15.52 2.75 14.18Q3.35 12.85 4.79 12.04Q6.23 11.23 8.75 11.23L8.75 11.23L18.54 11.23Q20.99 11.23 22.50 11.48Q24.01 11.74 24.01 12.02L24.01 12.02L23.29 15.05Q22.36 14.94 19.04 14.81Q15.73 14.69 10.15 14.69L10.15 14.69L9.76 14.65Q8.10 14.65 7.52 15.32Q6.95 15.98 6.91 16.99L6.91 16.99L6.91 17.60Q6.91 18.79 7.58 19.39Q8.24 19.98 9.79 19.98L9.79 19.98L17.78 19.98Q20.09 19.98 21.71 20.45Q23.33 20.92 24.19 22.16Q25.06 23.40 25.06 25.81L25.06 25.81L25.06 26.39Q25.06 29.09 23.67 30.74Q22.28 32.40 18.86 32.40L18.86 32.40ZM52.67 32.76L52.67 32.76Q50.90 32.76 49.61 32.04Q48.31 31.32 47.05 30.10L47.05 30.10Q45.68 28.66 43.74 26.78L43.74 26.78Q42.84 25.85 41.90 25.24Q40.97 24.62 39.80 24.30Q38.63 23.98 36.90 23.98L36.90 23.98L35.21 23.98L35.21 32.40L30.46 32.40L30.46 14.11L30.10 11.23L35.21 11.23L35.21 20.45L37.22 20.45Q37.94 20.45 38.41 20.27Q38.88 20.09 39.28 19.69L39.28 19.69Q40.28 18.68 41.58 17.17Q42.88 15.66 44.12 14.06Q45.36 12.46 46.26 11.23L46.26 11.23L52.09 11.23L50.62 13.39Q49.61 14.44 48.46 15.66Q47.30 16.88 46.19 18.05Q45.07 19.22 44.17 20.11Q43.27 20.99 42.84 21.38L42.84 21.38Q43.81 21.71 44.62 22.21Q45.43 22.72 46.62 23.69L46.62 23.69Q47.52 24.41 48.37 25.16Q49.21 25.92 50.33 26.96L50.33 26.96Q51.59 28.12 52.70 28.66Q53.82 29.20 54.59 29.34Q55.37 29.48 55.58 29.48L55.58 29.48L54.86 32.40Q54.76 32.51 54.22 32.63Q53.68 32.76 52.67 32.76ZM69.37 32.40L64.62 32.40L64.62 23.62L54.14 11.23L59.90 11.23L65.23 17.96L66.89 20.20L67.25 20.20L68.90 17.96L74.23 11.23L79.99 11.23L78.59 13.39L69.37 23.76L69.37 32.40ZM88.34 32.40L83.59 32.40L83.59 14.11L83.23 11.23L105.70 11.23L105.70 14.69L88.34 14.69L88.34 19.94L101.81 19.94L101.81 23.51L88.34 23.51L88.34 32.40ZM114.05 32.40L109.30 32.40L109.30 11.23L114.05 11.23L114.05 32.40ZM142.81 32.76L142.81 32.76Q141.37 32.76 139.99 32.31Q138.60 31.86 136.84 30.10L136.84 30.10L134.24 27.50Q132.66 25.88 130.77 25.13Q128.88 24.37 126.04 24.37L126.04 24.37L124.92 24.37L124.92 32.40L120.17 32.40L120.17 14.11L119.81 11.20L135.76 11.20Q138.06 11.20 139.37 11.81Q140.69 12.42 141.32 13.41Q141.95 14.40 142.13 15.52Q142.31 16.63 142.31 17.64L142.31 17.64L142.31 18.32Q142.31 19.12 142.09 20.09Q141.88 21.06 141.26 22.00Q140.65 22.93 139.52 23.58Q138.38 24.23 136.55 24.34L136.55 24.34Q137.02 24.59 137.74 25.11Q138.46 25.63 139.23 26.24Q140.00 26.86 140.65 27.36Q141.30 27.86 141.66 28.08L141.66 28.08Q142.96 28.84 143.96 29.12Q144.97 29.41 145.62 29.45Q146.27 29.48 146.38 29.48L146.38 29.48L145.66 32.40Q145.33 32.51 144.58 32.63Q143.82 32.76 142.81 32.76ZM130.32 21.10L130.32 21.10Q131.69 21.10 132.77 21.04Q133.85 20.99 134.71 20.92L134.71 20.92Q136.30 20.74 136.93 20.03Q137.56 19.33 137.56 18.22L137.56 18.22L137.56 17.39Q137.56 16.24 136.94 15.44Q136.33 14.65 134.75 14.65L134.75 14.65L124.92 14.65L124.92 20.92Q126.50 21.02 127.84 21.06Q129.17 21.10 130.32 21.10ZM169.27 32.40L149.62 32.40L149.62 11.23L172.01 11.23L172.01 14.69L154.37 14.69L154.37 19.66L167.83 19.66L167.83 23.22L154.37 23.22L154.37 28.94L172.15 28.94L173.59 32.00Q173.59 32.15 172.62 32.27Q171.65 32.40 169.27 32.40L169.27 32.40Z" transform="translate(0, 0)"></path></g></svg></svg>